# xmcd CD database file
#
# Track frame offsets:
#	150
#	8835
#	22457
#	41385
#	50372
#	66170
#	79515
#	107910
#	121582
#	155217
#	166107
#	231232
#	241957
#	267105
#	296422
#
# Disc length: 4205 seconds
#
# Revision: 0
# Processed by: cddbd v1.5.1PL0 Copyright (c) Steve Scherf et al.
# Submitted via: CDex 1.51
#
DISCID=c2106b0f
DTITLE=Yoko Ono - IMA - Rising
DYEAR=1995
DGENRE=Other
TTITLE0=Warzone
TTITLE1=Wouldnit
TTITLE2=Ask The Dragon
TTITLE3=New York Woman
TTITLE4=Talking To The Universe
TTITLE5=Turned The Corner
TTITLE6=I'm dying
TTITLE7=Where Do We Go From Here
TTITLE8=Kurushi
TTITLE9=Will I
TTITLE10=Rising
TTITLE11=Goodbye, My Love
TTITLE12=Revelations
TTITLE13=Ask The Dragon (WEEN)
TTITLE14=Talking To The Universe (CIBO MATTO)
EXTD=YEAR: 1995
EXTT0=
EXTT1=
EXTT2=
EXTT3=
EXTT4=
EXTT5=
EXTT6=
EXTT7=
EXTT8=
EXTT9=
EXTT10=
EXTT11=
EXTT12=
EXTT13=
EXTT14=
PLAYORDER=
